<?xml version="1.0" encoding="UTF-8"?>
<svg width="606px" height="441px" viewBox="0 0 606 441" version="1.1" xmlns="http://www.w3.org/2000/svg" xmlns:xlink="http://www.w3.org/1999/xlink">
    <!-- Generator: Sketch 52.5 (67469) - http://www.bohemiancoding.com/sketch -->
    <title>Group 90</title>
    <desc>Created with Sketch.</desc>
    <defs>
        <path d="M72.3575426,28.1745087 C-52.7969084,117.978115 -0.898783422,302.48106 119.037177,347.101229 C238.970787,391.723746 393.278265,366.515181 436.70222,283.625682 C510.901165,141.980349 371.238369,170.378416 316.853234,137.563393 C253.78942,99.5146774 216.625303,0.126136933 144.313947,0.126136933 C123.668,0.126136933 100.156584,8.22780034 72.3575426,28.1745087" id="path-1"></path>
        <polygon id="path-3" points="0.481276744 0.140744681 82.5801837 0.140744681 82.5801837 67.5546319 0.481276744 67.5546319"></polygon>
        <polygon id="path-5" points="0 441 605.163814 441 605.163814 0.140744681 0 0.140744681"></polygon>
    </defs>
    <g id="Page-1" stroke="none" stroke-width="1" fill="none" fill-rule="evenodd">
        <g id="13-inch-mac" transform="translate(-523.000000, -223.000000)">
            <g id="Group-90" transform="translate(523.000000, 223.000000)">
                <path d="M410.832406,175.523231 C329.722886,126.580576 291.435279,-23.7934495 166.217401,66.0650876 C41.0018748,155.923625 92.925326,340.541775 212.919815,385.186889 C332.911952,429.8367 487.294733,404.615063 530.737526,321.670167 C604.975032,179.94054 465.244082,208.355978 410.832406,175.523231" id="Fill-1" fill="#EAECFC"></path>
                <g id="Group-5" transform="translate(94.000000, 38.000000)">
                    <mask id="mask-2" fill="white">
                        <use xlink:href="#path-1"></use>
                    </mask>
                    <g id="Clip-4"></g>
                    <path d="M-12.0165193,311.431614 C-12.0165193,311.431614 57.1214303,242.21778 172.593466,275.058619 C288.065501,307.901805 356.051621,279.745474 341.712525,105.705221 C341.712525,105.705221 504.012287,128.315715 483.204143,243.454622 C457.950879,383.187193 131.992668,436.509844 -12.0165193,311.431614" id="Fill-3" fill="#E0E1F4" mask="url(#mask-2)"></path>
                </g>
                <g id="Group-89">
                    <path d="M234.153233,65.452141 L234.153233,132.915758 C234.153233,138.733205 229.425023,143.434077 223.599907,143.434077 L79.5551163,143.434077 C73.7276512,143.434077 69.0017907,138.733205 69.0017907,132.915758 L69.0017907,65.452141 C69.0017907,59.6346941 73.7276512,54.9314761 79.5551163,54.9314761 L223.599907,54.9314761 C229.425023,54.9314761 234.153233,59.6346941 234.153233,65.452141" id="Fill-6" fill="#C7CCEA"></path>
                    <path d="M234.153233,65.452141 L234.153233,71.2906995 L69.0017907,71.2906995 L69.0017907,65.452141 C69.0017907,59.6346941 73.7276512,54.9314761 79.5551163,54.9314761 L223.599907,54.9314761 C229.425023,54.9314761 234.153233,59.6346941 234.153233,65.452141" id="Fill-8" fill="#82B9FC"></path>
                    <path d="M80.5223674,63.889875 C80.5223674,65.112008 79.5311581,66.0995665 78.3097628,66.0995665 C77.0883674,66.0995665 76.0971581,65.112008 76.0971581,63.889875 C76.0971581,62.667742 77.0883674,61.6801835 78.3097628,61.6801835 C79.5311581,61.6801835 80.5223674,62.667742 80.5223674,63.889875" id="Fill-10" fill="#FFFFFF"></path>
                    <path d="M89.3774837,63.889875 C89.3774837,65.112008 88.3886233,66.0995665 87.1648791,66.0995665 C85.9434837,66.0995665 84.9522744,65.112008 84.9522744,63.889875 C84.9522744,62.667742 85.9434837,61.6801835 87.1648791,61.6801835 C88.3886233,61.6801835 89.3774837,62.667742 89.3774837,63.889875" id="Fill-12" fill="#FFFFFF"></path>
                    <path d="M98.2361233,63.889875 C98.2361233,65.112008 97.244914,66.0995665 96.0211698,66.0995665 C94.7997744,66.0995665 93.8085651,65.112008 93.8085651,63.889875 C93.8085651,62.667742 94.7997744,61.6801835 96.0211698,61.6801835 C97.244914,61.6801835 98.2361233,62.667742 98.2361233,63.889875" id="Fill-14" fill="#FFFFFF"></path>
                    <path d="M124.608867,111.78529 L91.4479837,111.78529 C90.3651698,111.78529 89.4890535,110.907981 89.4890535,109.828939 L89.4890535,83.0264601 C89.4890535,81.9450718 90.3651698,81.070109 91.4479837,81.070109 L124.608867,81.070109 C125.691681,81.070109 126.567798,81.9450718 126.567798,83.0264601 L126.567798,109.828939 C126.567798,110.907981 125.691681,111.78529 124.608867,111.78529" id="Fill-16" fill="#FFFFFF"></path>
                    <path d="M211.316193,126.155322 L89.4961,126.155322 C88.2089372,126.155322 87.1660535,125.113811 87.1660535,123.828343 C87.1660535,122.540529 88.2089372,121.499019 89.4961,121.499019 L211.316193,121.499019 C212.603356,121.499019 213.64624,122.540529 213.64624,123.828343 C213.64624,125.113811 212.603356,126.155322 211.316193,126.155322" id="Fill-18" fill="#FFFFFF"></path>
                    <path d="M211.316193,108.579361 L137.41003,108.579361 C136.122867,108.579361 135.079984,107.53785 135.079984,106.250036 C135.079984,104.964568 136.122867,103.923057 137.41003,103.923057 L211.316193,103.923057 C212.603356,103.923057 213.64624,104.964568 213.64624,106.250036 C213.64624,107.53785 212.603356,108.579361 211.316193,108.579361" id="Fill-20" fill="#FFFFFF"></path>
                    <path d="M183.185344,92.0641452 L137.411205,92.0641452 C136.124042,92.0641452 135.081158,91.0226346 135.081158,89.7371665 C135.081158,88.4493527 136.124042,87.407842 137.411205,87.407842 L183.185344,87.407842 C184.472507,87.407842 185.515391,88.4493527 185.515391,89.7371665 C185.515391,91.0226346 184.472507,92.0641452 183.185344,92.0641452" id="Fill-22" fill="#FFFFFF"></path>
                    <path d="M1.05509767,194.763662 C1.05509767,194.763662 3.74686512,191.674316 5.39574884,190.257487 C8.36467907,187.705316 11.7728419,183.196795 22.6667488,186.51837 C23.5123302,186.778747 24.3320744,187.121226 25.1471209,187.466051 C26.1077953,187.871864 29.0837721,187.881247 32.130214,185.467476 C36.9711674,181.627492 38.8643302,178.730497 45.4974465,178.639013 C53.2157256,178.535801 54.4277256,188.143971 60.4266558,190.604657 C64.2435163,192.169269 74.3129814,193.724497 76.3964,194.418838 L1.05509767,194.763662 Z" id="Stroke-24" stroke="#E8EAFA" stroke-width="0.899" stroke-linecap="round" stroke-linejoin="round"></path>
                    <path d="M410.63476,56.7623298 C410.63476,56.7623298 415.924342,50.6845053 419.168086,47.9001064 C425.007295,42.8849043 431.70383,34.0203351 453.122877,40.553234 C454.785853,41.0622606 456.397156,41.7354894 458.001412,42.4134096 C459.889877,43.2133085 465.738481,43.2320745 471.728016,38.4842872 C481.245505,30.9356809 484.968412,25.2402128 498.009156,25.0619362 C513.182644,24.8578564 515.569063,43.7481383 527.360226,48.5827181 C534.867109,51.6579894 554.665458,54.7168404 558.759481,56.0797181 L410.63476,56.7623298 Z" id="Fill-26" fill="#E8EAFA"></path>
                    <path d="M293.566835,113.206811 L292.472277,110.077588 L291.377719,113.206811 C290.456974,115.845774 288.26316,118.074231 285.296579,119.390194 C288.26316,120.706157 290.456974,122.932269 291.377719,125.573577 L292.472277,128.702801 L293.566835,125.573577 C294.489928,122.932269 296.681393,120.706157 299.647974,119.390194 C296.681393,118.074231 294.489928,115.845774 293.566835,113.206811" id="Fill-28" fill="#FFFFFF"></path>
                    <path d="M194.674916,292.177278 L193.580358,289.045709 L192.4858,292.177278 C191.562707,294.816241 189.371242,297.042353 186.40466,298.360661 C189.371242,299.674278 191.562707,301.902736 192.4858,304.541698 L193.580358,307.673268 L194.674916,304.541698 C195.598009,301.902736 197.787126,299.674278 200.756056,298.360661 C197.787126,297.042353 195.598009,294.816241 194.674916,292.177278" id="Fill-30" fill="#FFFFFF"></path>
                    <path d="M491.155953,273.319837 L490.432512,271.255581 L489.711419,273.319837 C489.10307,275.060379 487.658535,276.531161 485.699605,277.399087 C487.658535,278.267012 489.10307,279.737794 489.711419,281.480682 L490.432512,283.544938 L491.155953,281.480682 C491.764302,279.737794 493.208837,278.267012 495.167767,277.399087 C493.208837,276.531161 491.764302,275.060379 491.155953,273.319837" id="Fill-32" fill="#FFFFFF"></path>
                    <path d="M146.877019,169.427743 L146.153577,167.363488 L145.432484,169.427743 C144.824135,171.168286 143.377251,172.639068 141.42067,173.506993 C143.377251,174.374919 144.824135,175.845701 145.432484,177.586243 L146.153577,179.652844 L146.877019,177.586243 C147.485367,175.845701 148.932251,174.374919 150.888833,173.506993 C148.932251,172.639068 147.485367,171.168286 146.877019,169.427743" id="Fill-34" fill="#FFFFFF"></path>
                    <g id="Group-38" transform="translate(305.348837, 0.000000)">
                        <mask id="mask-4" fill="white">
                            <use xlink:href="#path-3"></use>
                        </mask>
                        <g id="Clip-37"></g>
                        <path d="M75.808486,0.140275532 L7.25297442,0.140275532 C3.51362558,0.140275532 0.481276744,3.15690319 0.481276744,6.88898298 L0.481276744,43.8790309 C0.481276744,47.6134564 3.51362558,50.630084 7.25297442,50.630084 L10.9429977,50.630084 L10.9429977,67.5546319 L27.8898581,50.630084 L75.808486,50.630084 C79.5478349,50.630084 82.5801837,47.6134564 82.5801837,43.8790309 L82.5801837,6.88898298 C82.5801837,3.15690319 79.5478349,0.140275532 75.808486,0.140275532" id="Fill-36" fill="#82B9FC" mask="url(#mask-4)"></path>
                    </g>
                    <path d="M322.223119,36.3733516 L338.397212,36.3733516 C339.644444,36.3733516 340.656793,37.3843676 340.656793,38.629958 C340.656793,39.8755484 339.644444,40.8842186 338.397212,40.8842186 L322.223119,40.8842186 C320.975886,40.8842186 319.963537,39.8755484 319.963537,38.629958 C319.963537,37.3843676 320.975886,36.3733516 322.223119,36.3733516" id="Fill-39" fill="#FFFFFF"></path>
                    <path d="M322.223119,25.074134 L352.025165,25.074134 C353.274747,25.074134 354.284747,26.08515 354.284747,27.3307404 C354.284747,28.5763309 353.274747,29.5850011 352.025165,29.5850011 L322.223119,29.5850011 C320.975886,29.5850011 319.963537,28.5763309 319.963537,27.3307404 C319.963537,26.08515 320.975886,25.074134 322.223119,25.074134" id="Fill-41" fill="#FFFFFF"></path>
                    <path d="M322.223119,14.0920612 L373.458305,14.0920612 C374.707886,14.0920612 375.717886,15.1030771 375.717886,16.3463218 C375.717886,17.594258 374.707886,18.6029282 373.458305,18.6029282 L322.223119,18.6029282 C320.975886,18.6029282 319.963537,17.594258 319.963537,16.3463218 C319.963537,15.1030771 320.975886,14.0920612 322.223119,14.0920612" id="Fill-43" fill="#FFFFFF"></path>
                    <path d="M338.658167,317.531494 L418.044167,317.531494 C433.973981,317.531494 447.350609,305.558813 449.088749,289.741457 L460.536981,170.739484 L381.19326,170.739484 L379.574912,239.739563 L338.658167,317.531494 Z" id="Fill-45" fill="#C5CAE8"></path>
                    <path d="M338.658167,316.248841 C359.053121,315.432522 379.445726,315.073623 399.840679,314.745219 L415.136307,314.625586 C416.371795,314.597437 417.771702,314.646697 418.873307,314.552868 C420.031284,314.517681 421.179865,314.423852 422.314353,314.212735 C424.597423,313.874947 426.819423,313.204064 428.931028,312.298607 C437.45026,308.735421 443.87433,300.781001 445.654749,291.770995 C446.061098,289.643405 446.265447,286.978639 446.516772,284.466346 L447.263702,276.866134 L448.755214,261.665708 C449.71354,251.529745 450.826888,241.410203 451.900307,231.283623 C454.023656,211.032809 456.264447,190.789032 458.723679,170.566368 C458.845819,169.569426 459.75247,168.858665 460.750726,168.978298 C461.718447,169.095586 462.416051,169.954128 462.350284,170.913538 C460.905749,191.239415 459.24747,211.544181 457.4694,231.839564 C456.593284,241.987256 455.757098,252.139639 454.76354,262.275602 L453.3284,277.487756 L452.614353,285.09266 C452.355981,287.64483 452.2174,290.065639 451.695958,292.950905 C449.589051,303.947756 441.762726,313.776426 431.275167,317.879134 C428.689098,318.93941 425.97854,319.708814 423.20926,320.077096 C421.828144,320.304634 420.437633,320.400809 419.044772,320.421921 C417.600237,320.49933 416.446958,320.426612 415.136307,320.435995 L399.840679,320.316362 C379.445726,319.990304 359.053121,319.629059 338.658167,318.815086 C337.948819,318.784591 337.399191,318.188772 337.427377,317.478011 C337.453214,316.807128 337.998144,316.27699 338.658167,316.248841" id="Fill-47" fill="#393F5C"></path>
                    <path d="M384.05203,319.778718 L384.05203,403.822058" id="Stroke-49" stroke="#393F5C" stroke-width="2.496"></path>
                    <mask id="mask-6" fill="white">
                        <use xlink:href="#path-5"></use>
                    </mask>
                    <g id="Clip-52"></g>
                    <polygon id="Fill-51" fill="#393F5C" mask="url(#mask-6)" points="143.13814 245.017723 399.039256 245.017723 399.039256 241.044032 143.13814 241.044032"></polygon>
                    <polygon id="Fill-53" fill="#F1BD9A" mask="url(#mask-6)" points="368.860456 419.688206 371.57806 429.411318 358.354107 433.413158 354.220153 421.407637"></polygon>
                    <polygon id="Fill-54" fill="#F1BD9A" mask="url(#mask-6)" points="289.029821 412.630329 289.029821 420.436968 300.736426 420.436968 302.042379 412.630329"></polygon>
                    <path d="M378.948477,186.783673 L361.26643,230.372301 L360.874174,231.341094 C359.821895,233.935487 357.301593,235.502445 354.6615,235.490716 L304.311826,235.129471 C302.273035,235.115397 300.635895,233.45461 300.649988,231.420849 C300.664081,229.577094 302.031105,228.061743 303.804477,227.803711 L353.628012,220.538939 L347.023081,225.655009 L358.926988,180.152253 C360.402058,174.513083 366.177849,171.135211 371.824453,172.605993 C377.471058,174.07912 380.855733,179.847306 379.380663,185.488822 C379.267919,185.913402 379.108198,186.384897 378.948477,186.783673" id="Fill-55" fill="#E7AE88" mask="url(#mask-6)"></path>
                    <path d="M309.781563,226.934143 L292.588074,226.579936 C288.336679,226.579936 284.888586,230.410537 284.888586,235.139558 L310.000005,235.139558 L309.781563,226.934143 Z" id="Fill-56" fill="#E7AE88" mask="url(#mask-6)"></path>
                    <path d="M351.108649,192.089279 L378.641719,198.8028 L383.158533,174.299151 C384.370533,167.7123 379.780905,161.451507 373.027998,160.478023 C367.34616,159.659359 361.861626,162.87772 359.912091,168.174412 L351.108649,192.089279 Z" id="Fill-57" fill="#826EF6" mask="url(#mask-6)"></path>
                    <path d="M379.574677,239.739329 L294.751119,282.729791 C286.877816,286.717557 282.121421,294.990999 282.638165,303.792233 L289.029351,412.630095 L302.041909,412.630095 L319.601816,296.177946 L385.641723,249.868254 L379.574677,239.739329 Z" id="Fill-58" fill="#2B3047" mask="url(#mask-6)"></path>
                    <path d="M364.605302,91.0871426 C364.605302,91.0871426 388.178233,83.0834617 400.563651,105.377419 C401.280047,106.67227 402.069256,107.917861 403.027581,109.050855 C405.545535,112.015877 410.785791,117.479116 416.568628,119.250153 C439.509721,126.28035 454.025535,169.601563 408.36414,173.455621 C351.221628,178.280818 334.99586,167.025935 343.169814,144.276903 C348.999628,128.051387 343.794605,116.536127 343.794605,116.536127 L364.605302,91.0871426 Z" id="Fill-59" fill="#21283A" mask="url(#mask-6)"></path>
                    <path d="M383.423481,149.227832 L371.228319,154.648848 C363.963365,157.874247 359.303272,165.092103 359.397226,173.030103 C359.587481,189.02339 363.218784,228.732156 376.748086,243.930236 L417.98897,243.930236 C424.373109,215.793029 420.692481,172.556263 420.692481,172.556263 C421.105877,161.955843 413.300691,152.814476 402.752063,151.547773 L383.423481,149.227832 Z" id="Fill-60" fill="#6138FA" mask="url(#mask-6)"></path>
                    <path d="M384.558909,162.341248 C380.262886,162.838546 376.363816,159.79377 375.814188,155.508094 L372.460049,129.334275 L388.145584,127.511631 L391.478584,153.507174 C392.037607,157.863222 388.923049,161.834568 384.558909,162.341248" id="Fill-61" fill="#ECB38C" mask="url(#mask-6)"></path>
                    <path d="M371.606012,148.868229 L370.978872,148.95033 C360.524198,150.310862 350.94564,142.949915 349.580965,132.509006 L346.60264,109.70133 L385.090686,104.69082 L388.069012,127.498495 C389.431337,137.939405 382.060686,147.505352 371.606012,148.868229" id="Fill-62" fill="#F1BD9A" mask="url(#mask-6)"></path>
                    <path d="M389.316244,118.737843 L386.034919,125.535811 C386.034919,125.535811 381.661384,129.319497 380.423547,119.812194 C379.373616,111.759252 373.517965,113.157316 373.517965,113.157316 C373.517965,113.157316 353.463593,128.308481 341.684174,117.91214 C332.387477,109.706726 347.412988,94.6892681 364.604128,91.0862043 L387.157663,100.926603 L389.316244,118.737843 Z" id="Fill-63" fill="#21283A" mask="url(#mask-6)"></path>
                    <path d="M383.760774,125.81167 C384.183565,129.297447 387.354495,131.779245 390.844867,131.359356 C394.33524,130.937122 396.822658,127.770367 396.399867,124.28459 C395.977077,120.798814 392.806147,118.317016 389.315774,118.736904 C385.825402,119.159138 383.337984,122.325894 383.760774,125.81167" id="Fill-64" fill="#F1BD9A" mask="url(#mask-6)"></path>
                    <path d="M388.942544,128.021127 C389.017707,128.649787 389.588474,129.095478 390.217963,129.020414 C390.847451,128.945351 391.29373,128.372989 391.218567,127.744329 C391.143405,127.118015 390.570288,126.669978 389.943149,126.747388 C389.31366,126.822452 388.867381,127.392468 388.942544,128.021127" id="Fill-65" fill="#FFFFFF" mask="url(#mask-6)"></path>
                    <path d="M356.416551,137.825636 L367.218853,135.529152 C367.218853,135.529152 367.737947,140.21595 361.823574,141.062764 C357.154086,141.731301 356.416551,137.825636 356.416551,137.825636" id="Fill-66" fill="#FFFFFF" mask="url(#mask-6)"></path>
                    <path d="M417.988735,243.929298 L376.747851,243.929298 L310.77606,283.738931 C302.99906,288.432766 299.915037,298.160569 303.576874,306.469197 L354.220153,421.40834 L368.860456,419.68891 L341.64213,308.775064 C364.486921,307.808617 406.902223,304.365064 417.988735,292.026447 C436.7442,271.149319 417.988735,243.929298 417.988735,243.929298" id="Fill-67" fill="#393F5C" mask="url(#mask-6)"></path>
                    <path d="M277.347409,171.805624 L300.87806,234.957763 L224.404619,234.957763 L202.635595,175.469678 C201.984967,173.691603 203.307363,171.805624 205.202874,171.805624 L277.347409,171.805624 Z" id="Fill-68" fill="#82B9FC" mask="url(#mask-6)"></path>
                    <path d="M277.347409,171.805624 L281.009247,171.805624 C282.975223,171.805624 284.732153,173.030103 285.413316,174.871513 L307.598084,234.957763 L300.87806,234.957763 L277.347409,171.805624 Z" id="Fill-69" fill="#9CCAFC" mask="url(#mask-6)"></path>
                    <path d="M230.136721,241.042859 L300.876651,241.042859 L300.876651,234.957997 L224.614605,234.957997 L224.614605,235.528013 C224.614605,238.57279 227.08793,241.042859 230.136721,241.042859" id="Fill-70" fill="#70A9EA" mask="url(#mask-6)"></path>
                    <path d="M300.877121,241.042859 L348.069958,241.042859 C349.751726,241.042859 351.1164,239.679981 351.1164,238.000428 C351.1164,236.318529 349.751726,234.957997 348.069958,234.957997 L300.877121,234.957997 L300.877121,241.042859 Z" id="Fill-71" fill="#7AB8EE" mask="url(#mask-6)"></path>
                    <path d="M258.189823,203.197084 C259.636707,207.557823 257.891521,212.061653 254.293102,213.250945 C250.692335,214.442584 246.60066,211.869302 245.153777,207.506216 C243.706893,203.145477 245.452079,198.641647 249.052847,197.452355 C252.653614,196.260716 256.745288,198.833998 258.189823,203.197084" id="Fill-72" fill="#EAF2F5" mask="url(#mask-6)"></path>
                    <path d="M411.217507,185.592504 L393.502577,230.016217 L393.11267,230.996738 C392.06274,233.63101 389.511902,235.230807 386.834228,235.219079 L336.475158,234.890674 C334.419926,234.8766 332.766344,233.201738 332.778088,231.149212 C332.789833,229.289036 334.1686,227.761956 335.956065,227.496887 L385.770205,220.133595 L379.101856,225.334111 L390.972879,179.007999 C392.433856,173.307839 398.244879,169.871323 403.952553,171.328031 C409.660228,172.78943 413.103623,178.592802 411.642647,184.290616 C411.532251,184.719887 411.374879,185.191382 411.217507,185.592504" id="Fill-73" fill="#F1BD9A" mask="url(#mask-6)"></path>
                    <path d="M341.938084,226.574306 L324.744595,226.213061 C320.4932,226.213061 317.047456,230.118726 317.047456,234.932194 L342.158874,234.932194 L341.938084,226.574306 Z" id="Fill-74" fill="#F1BD9A" mask="url(#mask-6)"></path>
                    <path d="M383.267519,191.082485 L410.79824,197.922677 L415.315053,172.959262 C416.529402,166.252778 411.939774,159.874698 405.186867,158.882448 C399.50503,158.047363 394.020495,161.326714 392.07096,166.721927 L383.267519,191.082485 Z" id="Fill-75" fill="#826EF6" mask="url(#mask-6)"></path>
                    <path d="M349.771456,424.084366 L343.347386,430.417877 L328.911433,433.924765 C327.424619,434.288355 326.222014,435.374435 325.714665,436.819414 L324.981828,438.904781 C324.617758,439.9416 325.40227,441.022988 326.501526,440.999531 L372.963874,439.871228 C374.478874,439.840733 375.650944,438.543536 375.526456,437.037568 L371.864619,423.894361 L364.843944,425.571568 C362.495107,426.350355 359.925479,426.085286 357.788037,424.839696 L355.291223,423.38768 C353.503758,422.348515 351.241828,422.634696 349.771456,424.084366" id="Fill-76" fill="#202E3B" mask="url(#mask-6)"></path>
                    <path d="M283.084209,414.966926 L276.66014,421.300436 L262.224186,424.807324 C260.737372,425.170915 259.537116,426.256995 259.027419,427.701973 L258.294581,429.78734 C257.930512,430.82416 258.715023,431.905548 259.814279,431.88209 L301.870209,430.997745 C303.38286,430.964904 304.557279,429.667707 304.432791,428.161739 L303.340581,414.732351 L298.156698,416.454128 C295.80786,417.232915 293.238233,416.967846 291.100791,415.722255 L288.603977,414.270239 C286.816512,413.231074 284.554581,413.517255 283.084209,414.966926" id="Fill-77" fill="#202E3B" mask="url(#mask-6)"></path>
                    <path d="M479.868147,143.022164 L597.913658,143.022164 C601.918426,143.022164 605.164519,139.782691 605.164519,135.783196 L605.164519,102.349297 C605.164519,98.3521484 601.918426,95.1103293 597.913658,95.1103293 L479.868147,95.1103293 C475.865728,95.1103293 472.619635,98.3521484 472.619635,102.349297 L472.619635,135.783196 C472.619635,139.782691 475.865728,143.022164 479.868147,143.022164" id="Fill-78" fill="#4545D1" mask="url(#mask-6)"></path>
                    <path d="M564.02487,132.814422 L588.448079,132.814422 C589.714102,132.814422 590.735847,131.791677 590.735847,130.529666 L590.735847,107.602358 C590.735847,106.338002 589.714102,105.317603 588.448079,105.317603 L564.02487,105.317603 C562.761195,105.317603 561.737102,106.338002 561.737102,107.602358 L561.737102,130.529666 C561.737102,131.791677 562.761195,132.814422 564.02487,132.814422" id="Fill-79" fill="#FFFFFF" mask="url(#mask-6)"></path>
                    <path d="M489.020391,111.07406 L552.084321,111.07406 C553.171833,111.07406 554.057344,110.19206 554.057344,109.103635 C554.057344,108.015209 553.171833,107.130863 552.084321,107.130863 L489.020391,107.130863 C487.93053,107.130863 487.047367,108.015209 487.047367,109.103635 C487.047367,110.19206 487.93053,111.07406 489.020391,111.07406" id="Fill-80" fill="#FFFFFF" mask="url(#mask-6)"></path>
                    <path d="M530.069844,121.037611 L552.083147,121.037611 C553.173007,121.037611 554.058519,120.155611 554.058519,119.067185 L554.058519,119.064839 C554.058519,117.976414 553.173007,117.094414 552.083147,117.094414 L530.069844,117.094414 C528.979984,117.094414 528.096821,117.976414 528.096821,119.064839 L528.096821,119.067185 C528.096821,120.155611 528.979984,121.037611 530.069844,121.037611" id="Fill-81" fill="#FFFFFF" mask="url(#mask-6)"></path>
                    <path d="M489.020391,121.037611 L515.334414,121.037611 C516.424274,121.037611 517.307437,120.155611 517.307437,119.067185 L517.307437,119.064839 C517.307437,117.976414 516.424274,117.094414 515.334414,117.094414 L489.020391,117.094414 C487.93053,117.094414 487.047367,117.976414 487.047367,119.064839 L487.047367,119.067185 C487.047367,120.155611 487.93053,121.037611 489.020391,121.037611" id="Fill-82" fill="#FFFFFF" mask="url(#mask-6)"></path>
                    <path d="M504.80857,131.000223 L552.083616,131.000223 C553.173477,131.000223 554.058988,130.118223 554.058988,129.029797 C554.058988,127.941372 553.173477,127.057026 552.083616,127.057026 L504.80857,127.057026 C503.718709,127.057026 502.835547,127.941372 502.835547,129.029797 C502.835547,130.118223 503.718709,131.000223 504.80857,131.000223" id="Fill-83" fill="#FFFFFF" mask="url(#mask-6)"></path>
                    <path d="M185.99056,221.903459 C185.99056,221.903459 205.448328,221.971486 201.40363,201.971666 C201.40363,201.971666 180.992235,203.989007 185.99056,221.903459" id="Fill-84" fill="#82B9FC" mask="url(#mask-6)"></path>
                    <path d="M183.552233,220.831454 C183.552233,220.831454 163.852535,220.89948 167.946558,200.651012 C167.946558,200.651012 188.611628,202.694156 183.552233,220.831454" id="Fill-85" fill="#82B9FC" mask="url(#mask-6)"></path>
                    <path d="M184.456065,220.900184 C184.456065,220.900184 170.111716,206.464471 187.030391,193.738806 C187.030391,193.738806 200.623112,210.527301 184.456065,220.900184" id="Fill-86" fill="#70A9EA" mask="url(#mask-6)"></path>
                    <polygon id="Fill-87" fill="#6138FA" mask="url(#mask-6)" points="200.195858 219.20726 168.719091 219.20726 173.72916 241.032069 194.781788 241.032069"></polygon>
                    <path d="M262.745158,245.017254 L262.745158,398.956749" id="Stroke-88" stroke="#393F5C" stroke-width="2" mask="url(#mask-6)"></path>
                </g>
            </g>
        </g>
    </g>
</svg>